<svg xmlns="http://www.w3.org/2000/svg" viewBox="0 0 64 64">
  <rect width="64" height="64" rx="14" fill="#fff6ee"/>
  <!-- fluffy pomeranian head -->
  <path d="M10 34c0-13 10-22 22-22s22 9 22 22c0 11-8 20-18 22l-4 2-4-2c-10-2-18-11-18-22z" fill="#f3b25f"/>
  <!-- fluff rim -->
  <path d="M12 35c1-4 4-6 8-7-3-3-2-7 1-10 4 0 7 1 10 4 3-3 6-4 10-4 3 3 4 7 1 10 4 1 7 3 8 7-1 8-7 14-16 16l-2 1-2-1c-9-2-15-8-16-16z" fill="#f7c77f"/>
  <!-- ears -->
  <path d="M20 18l4 9-9-3z" fill="#d98d42"/>
  <path d="M44 18l-4 9 9-3z" fill="#d98d42"/>
  <!-- face -->
  <ellipse cx="32" cy="37" rx="14" ry="12" fill="#ffe2b8"/>
  <!-- eyes -->
  <circle cx="26.5" cy="35" r="2.2" fill="#2b1c12"/>
  <circle cx="37.5" cy="35" r="2.2" fill="#2b1c12"/>
  <!-- nose -->
  <ellipse cx="32" cy="39.5" rx="2.8" ry="2.1" fill="#2b1c12"/>
  <!-- smile -->
  <path d="M27.5 43c1.6 2 3 3 4.5 3s2.9-1 4.5-3" stroke="#6a4530" stroke-width="2" fill="none" stroke-linecap="round"/>
</svg>
